<svg width="40" height="81" viewBox="0 0 40 81" fill="none" xmlns="http://www.w3.org/2000/svg">
<path d="M0.0670379 41.8401L0.00244141 62.8979L9.80689 72.1905L9.80352 62.3266L6.86268 59.6459L6.76686 48.1587L0.0670379 41.8401Z" fill="#73BB1C"/>
<path d="M39.9225 41.8419L39.9871 62.8997L30.1826 72.1922L30.186 62.3283L33.1268 59.6477L33.2227 48.1605L39.9225 41.8419Z" fill="#73BB1C"/>
<path d="M12.172 57.7781L12.1089 74.4775L18.8816 80.9239L18.7448 63.8866L12.172 57.7781Z" fill="white"/>
<path d="M27.8224 57.7802L27.8855 74.4796L21.1128 80.926L21.2495 63.8887L27.8224 57.7802Z" fill="white"/>
<path d="M18.7401 58.5089L18.75 44.7617L0.124046 27.2392L0.0268555 36.4366L12.1314 47.853L12.161 52.3792L18.7401 58.5089Z" fill="white"/>
<path d="M21.1735 58.5103L21.1636 44.7631L39.7895 27.2406L39.8867 36.438L27.7822 47.8544L27.7526 52.3806L21.1735 58.5103Z" fill="white"/>
<path d="M0.101242 8.32803L0 21.7411L18.7111 39.3882L18.7217 29.7967L6.90374 18.7596L6.71709 14.5241L0.101242 8.32803Z" fill="white"/>
<path d="M39.8988 8.32693L40.0001 21.74L21.2889 39.3871L21.2783 29.7956L33.0963 18.7585L33.283 14.523L39.8988 8.32693Z" fill="white"/>
<path d="M14.2958 25.6627L14.3771 16.5816L10.9785 13.075L20.039 0L29.1008 13.0652L25.6758 16.5837L25.7025 25.665L21.2795 29.7945L21.2583 12.2556L19.9758 10.8013L18.6745 12.2649L18.7214 29.7986L14.2958 25.6627Z" fill="#73BB1C"/>
</svg>
