<svg width="174" height="75" viewBox="0 0 174 75" fill="none" xmlns="http://www.w3.org/2000/svg">
<path d="M0.0684738 38.7762L0.00195312 58.292L10.0985 66.9041L10.095 57.7625L7.06655 55.2781L6.96787 44.6321L0.0684738 38.7762Z" fill="#73BB1C"/>
<path d="M41.112 38.7779L41.1785 58.2937L31.082 66.9058L31.0855 57.7642L34.1139 55.2798L34.2126 44.6338L41.112 38.7779Z" fill="#73BB1C"/>
<path d="M12.5347 53.5472L12.4697 69.0238L19.4441 74.9981L19.3034 59.2084L12.5347 53.5472Z" fill="white"/>
<path d="M28.6516 53.5491L28.7166 69.0256L21.7422 75L21.883 59.2103L28.6516 53.5491Z" fill="white"/>
<path d="M19.298 54.2244L19.3082 41.4839L0.127429 25.2445L0.0273438 33.7685L12.4924 44.3488L12.523 48.5436L19.298 54.2244Z" fill="white"/>
<path d="M21.8051 54.2257L21.7949 41.4852L40.9757 25.2458L41.0758 33.7698L28.6107 44.3501L28.5802 48.5449L21.8051 54.2257Z" fill="white"/>
<path d="M0.104258 7.71817L0 20.149L19.2685 36.5039L19.2794 27.6147L7.10939 17.3859L6.91718 13.4605L0.104258 7.71817Z" fill="white"/>
<path d="M41.0873 7.71718L41.1915 20.148L21.9231 36.5029L21.9121 27.6137L34.0821 17.3849L34.2744 13.4595L41.0873 7.71718Z" fill="white"/>
<path d="M14.7217 23.7835L14.8055 15.3674L11.3057 12.1176L20.636 0L29.9678 12.1085L26.4408 15.3694L26.4682 23.7857L21.9135 27.6127L21.8917 11.3581L20.571 10.0104L19.2309 11.3668L19.2792 27.6165L14.7217 23.7835Z" fill="#73BB1C"/>
<path d="M81.736 59.8493C80.8827 59.8493 80.0933 59.7106 79.368 59.4333C78.6533 59.1453 78.0293 58.7453 77.496 58.2333C76.9733 57.7213 76.5627 57.1186 76.264 56.4253C75.976 55.7319 75.832 54.9746 75.832 54.1533C75.832 53.3319 75.976 52.5746 76.264 51.8813C76.5627 51.1879 76.9787 50.5853 77.512 50.0733C78.0453 49.5613 78.6693 49.1666 79.384 48.8893C80.1093 48.6013 80.8987 48.4573 81.752 48.4573C82.6053 48.4573 83.384 48.5906 84.088 48.8573C84.8027 49.1239 85.4107 49.5293 85.912 50.0733L85.176 50.8253C84.7067 50.3559 84.1893 50.0199 83.624 49.8173C83.0587 49.6146 82.4507 49.5133 81.8 49.5133C81.1067 49.5133 80.4667 49.6306 79.88 49.8653C79.304 50.0893 78.7973 50.4146 78.36 50.8413C77.9333 51.2573 77.5973 51.7479 77.352 52.3133C77.1173 52.8679 77 53.4813 77 54.1533C77 54.8146 77.1173 55.4279 77.352 55.9933C77.5973 56.5586 77.9333 57.0546 78.36 57.4813C78.7973 57.8973 79.304 58.2226 79.88 58.4573C80.4667 58.6813 81.1013 58.7933 81.784 58.7933C82.424 58.7933 83.0267 58.6973 83.592 58.5053C84.168 58.3133 84.696 57.9879 85.176 57.5293L85.848 58.4253C85.3147 58.8946 84.6907 59.2519 83.976 59.4973C83.2613 59.7319 82.5147 59.8493 81.736 59.8493ZM84.712 58.2813V54.1533H85.848V58.4253L84.712 58.2813ZM91.567 59.7533L96.687 48.5533H97.855L102.975 59.7533H101.727L97.023 49.2413H97.503L92.799 59.7533H91.567ZM93.583 56.7613L93.935 55.8013H100.447L100.799 56.7613H93.583ZM108.988 59.7533V48.5533H109.964L115.084 57.2893H114.572L119.644 48.5533H120.62V59.7533H119.484V50.3293H119.756L115.084 58.3293H114.524L109.82 50.3293H110.124V59.7533H108.988ZM129.485 53.5613H135.405V54.5693H129.485V53.5613ZM129.613 58.7293H136.349V59.7533H128.429V48.5533H136.109V49.5773H129.613V58.7293ZM146.38 59.8493C145.548 59.8493 144.748 59.7159 143.98 59.4493C143.223 59.1719 142.636 58.8199 142.22 58.3933L142.684 57.4813C143.079 57.8653 143.607 58.1906 144.268 58.4573C144.94 58.7133 145.644 58.8413 146.38 58.8413C147.084 58.8413 147.655 58.7559 148.092 58.5853C148.54 58.4039 148.865 58.1639 149.068 57.8653C149.281 57.5666 149.388 57.2359 149.388 56.8733C149.388 56.4359 149.26 56.0839 149.004 55.8173C148.759 55.5506 148.433 55.3426 148.028 55.1933C147.623 55.0333 147.175 54.8946 146.684 54.7773C146.193 54.6599 145.703 54.5373 145.212 54.4093C144.721 54.2706 144.268 54.0893 143.852 53.8653C143.447 53.6413 143.116 53.3479 142.86 52.9853C142.615 52.6119 142.492 52.1266 142.492 51.5293C142.492 50.9746 142.636 50.4679 142.924 50.0093C143.223 49.5399 143.676 49.1666 144.284 48.8893C144.892 48.6013 145.671 48.4573 146.62 48.4573C147.249 48.4573 147.873 48.5479 148.492 48.7293C149.111 48.8999 149.644 49.1399 150.092 49.4493L149.692 50.3933C149.212 50.0733 148.7 49.8386 148.156 49.6893C147.623 49.5399 147.105 49.4653 146.604 49.4653C145.932 49.4653 145.377 49.5559 144.94 49.7373C144.503 49.9186 144.177 50.1639 143.964 50.4733C143.761 50.7719 143.66 51.1133 143.66 51.4973C143.66 51.9346 143.783 52.2866 144.028 52.5533C144.284 52.8199 144.615 53.0279 145.02 53.1773C145.436 53.3266 145.889 53.4599 146.38 53.5773C146.871 53.6946 147.356 53.8226 147.836 53.9613C148.327 54.0999 148.775 54.2813 149.18 54.5053C149.596 54.7186 149.927 55.0066 150.172 55.3693C150.428 55.7319 150.556 56.2066 150.556 56.7933C150.556 57.3373 150.407 57.8439 150.108 58.3133C149.809 58.7719 149.351 59.1453 148.732 59.4333C148.124 59.7106 147.34 59.8493 146.38 59.8493Z" fill="white"/>
<path d="M68.512 42.6127C67.168 42.6127 65.88 42.4367 64.648 42.0847C63.416 41.7167 62.424 41.2447 61.672 40.6687L62.992 37.7407C63.712 38.2527 64.56 38.6767 65.536 39.0127C66.528 39.3327 67.528 39.4927 68.536 39.4927C69.304 39.4927 69.92 39.4207 70.384 39.2767C70.864 39.1167 71.216 38.9007 71.44 38.6287C71.664 38.3567 71.776 38.0447 71.776 37.6927C71.776 37.2447 71.6 36.8927 71.248 36.6367C70.896 36.3647 70.432 36.1487 69.856 35.9887C69.28 35.8127 68.64 35.6527 67.936 35.5087C67.248 35.3487 66.552 35.1567 65.848 34.9327C65.16 34.7087 64.528 34.4207 63.952 34.0687C63.376 33.7167 62.904 33.2527 62.536 32.6767C62.184 32.1007 62.008 31.3647 62.008 30.4687C62.008 29.5087 62.264 28.6367 62.776 27.8527C63.304 27.0527 64.088 26.4207 65.128 25.9567C66.184 25.4767 67.504 25.2367 69.088 25.2367C70.144 25.2367 71.184 25.3647 72.208 25.6207C73.232 25.8607 74.136 26.2287 74.92 26.7247L73.72 29.6767C72.936 29.2287 72.152 28.9007 71.368 28.6927C70.584 28.4687 69.816 28.3567 69.064 28.3567C68.312 28.3567 67.696 28.4447 67.216 28.6207C66.736 28.7967 66.392 29.0287 66.184 29.3167C65.976 29.5887 65.872 29.9087 65.872 30.2767C65.872 30.7087 66.048 31.0607 66.4 31.3327C66.752 31.5887 67.216 31.7967 67.792 31.9567C68.368 32.1167 69 32.2767 69.688 32.4367C70.392 32.5967 71.088 32.7807 71.776 32.9887C72.48 33.1967 73.12 33.4767 73.696 33.8287C74.272 34.1807 74.736 34.6447 75.088 35.2207C75.456 35.7967 75.64 36.5247 75.64 37.4047C75.64 38.3487 75.376 39.2127 74.848 39.9967C74.32 40.7807 73.528 41.4127 72.472 41.8927C71.432 42.3727 70.112 42.6127 68.512 42.6127ZM90.7767 25.5247H94.6647V42.3247H90.7767V25.5247ZM83.1447 42.3247H79.2567V25.5247H83.1447V42.3247ZM91.0647 35.4367H82.8567V32.1487H91.0647V35.4367ZM103.175 32.2927H111.263V35.3167H103.175V32.2927ZM103.463 39.2047H112.607V42.3247H99.5995V25.5247H112.295V28.6447H103.463V39.2047ZM120.141 38.4847L119.925 33.9967L127.965 25.5247H132.285L125.037 33.3247L122.877 35.6287L120.141 38.4847ZM116.661 42.3247V25.5247H120.525V42.3247H116.661ZM128.157 42.3247L122.181 35.0047L124.725 32.2447L132.693 42.3247H128.157ZM142.937 42.6127C141.609 42.6127 140.377 42.3967 139.241 41.9647C138.121 41.5327 137.145 40.9247 136.313 40.1407C135.497 39.3567 134.857 38.4367 134.393 37.3807C133.945 36.3247 133.721 35.1727 133.721 33.9247C133.721 32.6767 133.945 31.5247 134.393 30.4687C134.857 29.4127 135.505 28.4927 136.337 27.7087C137.169 26.9247 138.145 26.3167 139.265 25.8847C140.385 25.4527 141.601 25.2367 142.913 25.2367C144.241 25.2367 145.457 25.4527 146.561 25.8847C147.681 26.3167 148.649 26.9247 149.465 27.7087C150.297 28.4927 150.945 29.4127 151.409 30.4687C151.873 31.5087 152.105 32.6607 152.105 33.9247C152.105 35.1727 151.873 36.3327 151.409 37.4047C150.945 38.4607 150.297 39.3807 149.465 40.1647C148.649 40.9327 147.681 41.5327 146.561 41.9647C145.457 42.3967 144.249 42.6127 142.937 42.6127ZM142.913 39.3007C143.665 39.3007 144.353 39.1727 144.977 38.9167C145.617 38.6607 146.177 38.2927 146.657 37.8127C147.137 37.3327 147.505 36.7647 147.761 36.1087C148.033 35.4527 148.169 34.7247 148.169 33.9247C148.169 33.1247 148.033 32.3967 147.761 31.7407C147.505 31.0847 147.137 30.5167 146.657 30.0367C146.193 29.5567 145.641 29.1887 145.001 28.9327C144.361 28.6767 143.665 28.5487 142.913 28.5487C142.161 28.5487 141.465 28.6767 140.825 28.9327C140.201 29.1887 139.649 29.5567 139.169 30.0367C138.689 30.5167 138.313 31.0847 138.041 31.7407C137.785 32.3967 137.657 33.1247 137.657 33.9247C137.657 34.7087 137.785 35.4367 138.041 36.1087C138.313 36.7647 138.681 37.3327 139.145 37.8127C139.625 38.2927 140.185 38.6607 140.825 38.9167C141.465 39.1727 142.161 39.3007 142.913 39.3007ZM155.987 42.3247V25.5247H159.203L169.115 37.6207H167.555V25.5247H171.395V42.3247H168.203L158.267 30.2287H159.827V42.3247H155.987Z" fill="white"/>
</svg>
