<svg width="19" height="19" viewBox="0 0 19 19" fill="none" xmlns="http://www.w3.org/2000/svg">
<path fill-rule="evenodd" clip-rule="evenodd" d="M4.9532 18.143H12.7558C12.8337 18.143 12.9116 18.0984 12.9673 18.0316C13.0118 17.9649 13.0229 17.8758 13.0007 17.7979C12.7558 17.1635 12.6779 16.2953 12.9561 15.8946C13.0786 15.7165 13.2678 15.6274 13.5349 15.6274C13.5794 15.6274 13.624 15.6274 13.6574 15.6386C13.9356 15.6608 14.1916 15.672 14.4254 15.672C15.3381 15.672 15.9058 15.4827 16.1618 15.0932C16.3398 14.8149 16.3398 14.4698 16.1618 14.0914C16.1284 14.0135 16.2731 13.802 16.3732 13.6573C16.5847 13.3568 16.9186 12.867 16.4512 12.4441C16.3287 12.3328 16.3176 12.1213 16.351 11.9654C16.3955 11.8208 16.4623 11.754 16.4845 11.754C17.1413 11.6204 17.3305 11.2753 17.375 11.0861C17.4306 10.8969 17.4418 10.5073 16.952 10.0732C16.2285 9.42766 16.0282 8.28121 15.9503 7.49093C15.928 7.25719 15.9058 7.03458 15.8835 6.81196C15.8835 6.72292 15.8724 6.63387 15.8724 6.54483C15.7722 5.42063 15.2602 4.43001 14.3809 3.68425C13.5683 2.99415 12.5109 2.5378 11.3199 2.35971C11.2198 2.34858 11.1196 2.3931 11.0639 2.47101C11.0083 2.56006 11.0083 2.66024 11.0528 2.74928L11.5982 3.69539L10.474 4.34096C10.3738 4.39662 10.3293 4.51905 10.3516 4.63036C10.4183 4.90862 10.4517 5.18689 10.4517 5.47629C10.4517 5.75455 10.4183 6.04395 10.3516 6.32222C10.3293 6.43352 10.3738 6.54483 10.474 6.60048L11.5982 7.25719L10.7968 8.64852L9.67259 8.00294C9.57242 7.94729 9.44998 7.95842 9.36094 8.03633C8.9491 8.43704 8.44822 8.72643 7.90282 8.88226C7.79152 8.91565 7.7136 9.01583 7.7136 9.13827V10.4294H6.09966V9.12714C6.09966 9.01583 6.02175 8.91565 5.91044 8.88226C5.36504 8.72643 4.86416 8.43704 4.45233 8.03633C4.36328 7.95842 4.24084 7.94729 4.14067 8.00294L3.90692 8.13651C3.82901 8.18103 3.77336 8.28121 3.78449 8.38138C3.87353 9.72819 4.47459 11.1752 4.99773 12.4552C5.19808 12.9449 5.3873 13.4124 5.54313 13.8465C5.92157 14.8928 5.43182 16.7516 4.75285 17.72C4.71946 17.7645 4.6972 17.8202 4.6972 17.8869C4.6972 18.0316 4.80851 18.143 4.9532 18.143ZM12.3996 17.6198H5.42069C5.68783 17.1412 5.91044 16.5401 6.05514 15.928C6.24436 15.0598 6.24436 14.2472 6.03288 13.6684C5.87705 13.2232 5.68783 12.7557 5.47634 12.266C5.00886 11.1084 4.47459 9.81724 4.32989 8.62626C4.6972 8.92678 5.13129 9.16053 5.57652 9.32749V10.6854C5.57652 10.8301 5.69896 10.9526 5.84366 10.9526H7.96961C8.1143 10.9526 8.23674 10.8301 8.23674 10.6854V9.32749C8.72649 9.1494 9.18285 8.89339 9.57242 8.54834L10.7634 9.22731C10.819 9.2607 10.8858 9.27183 10.9526 9.24957C11.0194 9.23844 11.0751 9.19392 11.1196 9.13827L12.177 7.29058C12.2104 7.2238 12.2215 7.15701 12.2104 7.09023C12.1881 7.02345 12.1436 6.96779 12.0879 6.9344L10.897 6.25543C10.9526 5.99943 10.9749 5.73229 10.9749 5.47629C10.9749 5.20915 10.9526 4.95315 10.897 4.69714L12.0879 4.01817C12.1436 3.98478 12.1881 3.918 12.2104 3.86234C12.2215 3.79556 12.2104 3.71765 12.177 3.66199L11.7874 2.98302C13.8243 3.46164 15.2045 4.83071 15.3492 6.58935C15.3603 6.6784 15.3603 6.76744 15.3715 6.85649C15.3937 7.0791 15.4049 7.30171 15.4271 7.53546C15.5273 8.42591 15.7499 9.6948 16.607 10.4628C16.8073 10.6409 16.9075 10.819 16.8741 10.9414C16.8407 11.075 16.6626 11.1863 16.3844 11.242C16.1395 11.2865 15.9391 11.5091 15.8501 11.8208C15.7499 12.2103 15.8501 12.5999 16.1061 12.8336C16.1951 12.9227 16.2063 12.9783 15.9503 13.3568C15.7611 13.6239 15.5384 13.9578 15.6943 14.3029C15.7611 14.4476 15.8167 14.6591 15.7277 14.8038C15.6386 14.9373 15.3604 15.1488 14.4254 15.1488C14.2139 15.1488 13.969 15.1377 13.713 15.1154C13.6462 15.1154 13.5906 15.1043 13.5349 15.1043C12.9895 15.1043 12.689 15.3714 12.5332 15.594C12.1659 16.1172 12.2104 16.952 12.3996 17.6198ZM9.53903 2.98302C9.58355 2.98302 9.62807 2.97189 9.67259 2.94963L9.96199 2.78267C10.0733 2.71589 10.1178 2.59345 10.0844 2.48215C10.051 2.35971 9.93973 2.28179 9.81729 2.29292C9.67259 2.30406 9.51677 2.31519 9.37207 2.33745C9.26076 2.34858 9.18285 2.41536 9.14945 2.51554C9.11606 2.61571 9.14945 2.71589 9.22737 2.78267C9.27189 2.8272 9.31641 2.87172 9.36094 2.90511C9.41659 2.96076 9.47224 2.98302 9.53903 2.98302Z" fill="white"/>
<path fill-rule="evenodd" clip-rule="evenodd" d="M5.84394 10.9525H7.9699C8.11459 10.9525 8.23703 10.8301 8.23703 10.6854V9.32747C8.72678 9.14938 9.18314 8.89338 9.57271 8.54833L10.7637 9.2273C10.8193 9.26069 10.8861 9.27182 10.9529 9.24956C11.0197 9.23843 11.0753 9.19391 11.1199 9.13825L12.1773 7.29057C12.2107 7.22378 12.2218 7.157 12.2107 7.09022C12.1884 7.02343 12.1439 6.96778 12.0882 6.93439L10.8973 6.25542C10.9529 5.99941 10.9752 5.73228 10.9752 5.47627C10.9752 5.20914 10.9529 4.95313 10.8973 4.69713L12.0882 4.01816C12.1439 3.98477 12.1884 3.91798 12.2107 3.86233C12.2218 3.79555 12.2107 3.71763 12.1773 3.66198L11.1199 1.81429C11.042 1.69186 10.8861 1.64733 10.7637 1.71412L9.57271 2.40422C9.18314 2.05917 8.72678 1.79203 8.23703 1.62507V0.256005C8.23703 0.111306 8.11459 0 7.9699 0H5.84394C5.69925 0 5.57681 0.111306 5.57681 0.256005V1.62507C5.08706 1.79203 4.6307 2.05917 4.24113 2.40422L3.05015 1.71412C2.92772 1.64733 2.77189 1.69186 2.7051 1.81429L1.63656 3.66198C1.60317 3.71763 1.59204 3.79555 1.60317 3.86233C1.62543 3.91798 1.66996 3.98477 1.72561 4.01816L2.91659 4.69713C2.86093 4.95313 2.83867 5.20914 2.83867 5.47627C2.83867 5.73228 2.86093 5.99941 2.91659 6.25542L1.72561 6.93439C1.66996 6.96778 1.62543 7.02343 1.60317 7.09022C1.59204 7.157 1.60317 7.22378 1.63656 7.29057L2.7051 9.13825C2.7385 9.19391 2.79415 9.23843 2.86093 9.24956C2.92772 9.27182 2.9945 9.26069 3.05015 9.2273L4.24113 8.54833C4.6307 8.89338 5.08706 9.14938 5.57681 9.32747V10.6854C5.57681 10.8301 5.69925 10.9525 5.84394 10.9525ZM7.71389 10.4294H6.09995V9.12712C6.09995 9.01582 6.02203 8.91564 5.91073 8.88225C5.36533 8.72642 4.86445 8.43702 4.45261 8.03632C4.36357 7.95841 4.24113 7.94728 4.14096 8.00293L3.01676 8.64851L2.21536 7.25718L3.33955 6.60047C3.43973 6.54482 3.48425 6.43351 3.46199 6.3222C3.3952 6.04394 3.36181 5.75454 3.36181 5.47627C3.36181 5.18688 3.3952 4.90861 3.46199 4.63035C3.48425 4.51904 3.43973 4.3966 3.33955 4.34095L2.21536 3.69537L3.01676 2.30404L4.14096 2.94962C4.24113 3.00527 4.36357 2.99414 4.45261 2.9051C4.86445 2.51552 5.36533 2.22613 5.91073 2.0703C6.02203 2.03691 6.09995 1.9256 6.09995 1.81429V0.52314H7.71389V1.81429C7.71389 1.9256 7.79181 2.03691 7.90311 2.0703C8.44851 2.22613 8.94939 2.51552 9.36123 2.9051C9.45027 2.99414 9.57271 3.00527 9.67288 2.94962L10.7971 2.30404L11.5985 3.69537L10.4743 4.34095C10.3741 4.3966 10.3296 4.51904 10.3519 4.63035C10.4186 4.90861 10.452 5.18688 10.452 5.47627C10.452 5.75454 10.4186 6.04394 10.3519 6.3222C10.3296 6.43351 10.3741 6.54482 10.4743 6.60047L11.5985 7.25718L10.7971 8.64851L9.67288 8.00293C9.57271 7.94728 9.45027 7.95841 9.36123 8.03632C8.94939 8.43702 8.44851 8.72642 7.90311 8.88225C7.79181 8.91564 7.71389 9.01582 7.71389 9.13825V10.4294Z" fill="white"/>
<path fill-rule="evenodd" clip-rule="evenodd" d="M6.91292 8.61511C8.63817 8.61511 10.0518 7.20152 10.0518 5.47627C10.0518 3.73989 8.63817 2.33743 6.91292 2.33743C5.17654 2.33743 3.76295 3.73989 3.76295 5.47627C3.76295 7.20152 5.17654 8.61511 6.91292 8.61511ZM6.91292 2.84944C8.34877 2.84944 9.52862 4.02929 9.52862 5.47627C9.52862 6.92326 8.34877 8.09197 6.91292 8.09197C5.46593 8.09197 4.28609 6.92326 4.28609 5.47627C4.28609 4.02929 5.46593 2.84944 6.91292 2.84944Z" fill="white"/>
<path fill-rule="evenodd" clip-rule="evenodd" d="M6.71233 19H11.5653C11.6989 19 11.8213 18.8776 11.8213 18.7329C11.8213 18.5882 11.6989 18.4769 11.5653 18.4769H6.71233C6.57876 18.4769 6.45632 18.5882 6.45632 18.7329C6.45632 18.8776 6.57876 19 6.71233 19Z" fill="white"/>
</svg>
